# AST/ASF file generated using VICON BodyLanguage
# -----------------------------------------------
:version 1.10
:name VICON
:units
  mass 1.0
  length 0.45
  angle deg
:documentation
   .ast/.asf automatically generated from VICON data using
   VICON BodyBuilder and BodyLanguage model FoxedUp or BRILLIANT.MOD
:root
   order TX TY TZ RX RY RZ
   axis XYZ
   position 0 0 0  
   orientation 0 0 0 
:bonedata
  begin
     id 1 
     name lhipjoint
     direction 0.561145 -0.797705 0.220866 
     length 2.46425 
     axis 0 0 0  XYZ
  end
  begin
     id 2 
     name lfemur
     direction 0.34202 -0.939693 0  
     length 7.95556  
     axis 0 0 20  XYZ
    dof rx ry rz
    limits (-160.0 20.0)
           (-70.0 70.0)
           (-60.0 70.0)
  end
  begin
     id 3 
     name ltibia
     direction 0.34202 -0.939693 0   
     length 7.9832   
     axis 0 0 20   XYZ
    dof rx
    limits (-10.0 170.0)
  end
  begin
     id 4 
     name lfoot
     direction 0.0723927 -0.198897 0.977343   
     length 2.23085   
     axis -90 7.62852e-016 20   XYZ
    dof rx rz
    limits (-45.0 90.0)
           (-70.0 20.0)
  end
  begin
     id 5 
     name ltoes
     direction 1.53826e-011 -4.21988e-011 1   
     length 1.12127   
     axis -90 7.62852e-016 20   XYZ
    dof rx
    limits (-90.0 20.0)
  end
  begin
     id 6 
     name rhipjoint
     direction -0.610499 -0.763299 0.21134   
     length 2.57533  
     axis 0 0 0  XYZ 
  end
  begin
     id 7 
     name rfemur
     direction -0.34202 -0.939693 0   
     length 8.65257   
     axis 0 0 -20   XYZ
    dof rx ry rz
    limits (-160.0 20.0)
           (-70.0 70.0)
           (-70.0 60.0)
  end
  begin
     id 8 
     name rtibia
     direction -0.342021 -0.939692 0   
     length 7.37807   
     axis 0 0 -20   XYZ
    dof rx
    limits (-10.0 170.0)
 end
 begin
     id 9 
     name rfoot
     direction -0.0239304 -0.0543852 0.998233   
     length 1.87018  
     axis -90 -7.62852e-016 -20   XYZ
    dof rx rz
    limits (-45.0 90.0)
           (-20.0 70.0)
  end
  begin
     id 10 
     name rtoes
     direction -1.53584e-011 -4.2242e-011 1   
     length 0.951568   
     axis -90 -7.62852e-016 -20   XYZ
    dof rx
    limits (-90.0 20.0)
  end
  begin
     id 11 
     name lowerback
     direction 0.00322089 0.999033 0.0438587   
     length 2.07568   
     axis 0 0 0   XYZ
    dof rx ry rz
    limits (-20.0 45.0)
           (-30.0 30.0)
           (-30.0 30.0)
  end
  begin
     id 12 
     name upperback
     direction -0.00321932 0.999732 -0.0229403   
     length 2.06253   
     axis 0 0 0   XYZ
    dof rx ry rz
    limits (-20.0 45.0)
           (-30.0 30.0)
           (-30.0 30.0)
  end
  begin
     id 13 
     name thorax
     direction -0.00537537 0.998955 -0.0453918   
     length 2.06975   
     axis 0 0 0   XYZ
    dof rx ry rz
    limits (-20.0 45.0)
           (-30.0 30.0)
           (-30.0 30.0)
  end
  begin
     id 14 
     name lowerneck
     direction -0.00013604 0.994111 0.108363   
     length 1.50836   
     axis 0 0 0   XYZ
    dof rx ry rz
    limits (-20.0 45.0)
           (-30.0 30.0)
           (-30.0 30.0)
  end
  begin
     id 15 
     name upperneck
     direction 0.0397262 0.983859 -0.174482   
     length 1.53037   
     axis 0 0 0   XYZ
    dof rx ry rz
    limits (-20.0 45.0)
           (-30.0 30.0)
           (-30.0 30.0)
  end
  begin
     id 16
     name head
     direction 0.0109991 0.997082 -0.0755378  
     length 1.56928  
     axis 0 0 0   XYZ
    dof rx ry rz
    limits (-20.0 45.0)
           (-30.0 30.0)
           (-30.0 30.0)
  end
  begin
     id 17 
     name lclavicle
     direction 0.964749 0.254 -0.068874  
     length 3.26503  
     axis 0 0 0   XYZ
    dof ry rz
    limits (-20.0 10.0)
           (0.0 20.0)
  end
  begin
     id 18 
     name lhumerus
     direction 1 -4.48941e-011 -2.05079e-027   
     length 5.68236   
     axis 180 -30 -90   XYZ
    dof rx ry rz
    limits (-60.0 90.0)
           (-90.0 90.0)
           (-90.0 90.0)
  end
  begin
     id 19
     name lradius
     direction 1 -4.48956e-011 6.2882e-027   
     length 3.17112   
     axis 180 -30 -90   XYZ
    dof rx
    limits (-10.0 170.0)
  end
  begin
     id 20
     name lwrist
     direction 1 -4.49014e-011 1.73219e-026   
     length 1.58556   
     axis -1.04724e-014 90 90   XYZ
    dof ry
    limits (-180.0 0.0)
 end
  begin
     id 21 
     name lhand
     direction 1 -4.49312e-011 3.46438e-026   
     length 0.632691   
     axis -2.21057e-014 90 90   XYZ
    dof rx rz
    limits (-90.0 90.0)
           (-45.0 45.0)
  end
  begin
     id 22 
     name lfingers
     direction 1 -4.48894e-011 6.92876e-026   
     length 0.510091   
     axis -4.42114e-014 90 90   XYZ
    dof rx
    limits (0.0 90.0)
  end
  begin
     id 23
     name lthumb
     direction 0.707107 -6.34705e-011 0.707107   
     length 0.732392   
     axis -90 45 2.85299e-015   XYZ
    dof rx rz
    limits (-45.0 45.0)
           (-45.0 45.0)
  end
  begin
     id 24 
     name rclavicle
     direction -0.954374 0.280496 -0.102435   
     length 3.25419  
     axis 0 0 0   XYZ 
    dof ry rz
    limits (-10.0 20.0)
           (-20.0 0.0)
  end
  begin
     id 25 
     name rhumerus
     direction -1 -4.48994e-011 -1.07204e-017  
     length 5.8712   
     axis 180 30 90   XYZ
    dof rx ry rz
    limits (-90.0 60.0)
           (-90.0 90.0)
           (-90.0 90.0)
  end
  begin
     id 26 
     name rradius
     direction -1 -4.48972e-011 5.89292e-027   
     length 3.37589   
     axis 180 30 90   XYZ
    dof rx
    limits (-10.0 170.0)
  end
  begin
     id 27 
     name rwrist
     direction -1 -4.48942e-011 1.73219e-026   
     length 1.68794   
     axis -1.04724e-014 -90 -90   XYZ
    dof ry
    limits (-180.0 0.0)
  end
  begin
     id 28
     name rhand
     direction -1 -4.48514e-011 3.46438e-026   
     length 0.603257   
     axis -2.21057e-014 -90 -90   XYZ
    dof rx rz
    limits (-90.0 90.0)
           (-45.0 45.0)
  end
  begin
     id 29
     name rfingers
     direction -1 -4.50028e-011 6.92876e-026   
     length 0.486362   
     axis -4.42114e-014 -90 -90   XYZ
    dof rx
    limits (0.0 90.0)
  end
  begin
     id 30
     name rthumb
     direction -0.707107 -6.34926e-011 0.707107   
     length 0.698321   
     axis -90 -45 -2.85299e-015   XYZ
    dof rx rz
    limits (-45.0 45.0)
           (-45.0 45.0)
  end
:hierarchy
  begin
    root lhipjoint rhipjoint lowerback
    lhipjoint lfemur
    lfemur ltibia
    ltibia lfoot
    lfoot ltoes
    rhipjoint rfemur
    rfemur rtibia
    rtibia rfoot
    rfoot rtoes
    lowerback upperback
    upperback thorax
    thorax lowerneck lclavicle rclavicle
    lowerneck upperneck
    upperneck head
    lclavicle lhumerus
    lhumerus lradius
    lradius lwrist
    lwrist lhand lthumb
    lhand lfingers
    rclavicle rhumerus
    rhumerus rradius
    rradius rwrist
    rwrist rhand rthumb
    rhand rfingers
  end

#!OML:ASF I:\Segmentation\Patient Classification 1\Patient 1\Session 1\Patient1.ASF
:FULLY-SPECIFIED
:DEGREES
2847
root 19.9133 15.9572 -0.414907 -519.758 -91.9092 156.455
lowerback 11.5894 1.10567 -0.735223
upperback 9.64175 0.86609 1.2598
thorax 3.5783 0.134473 1.63999
lowerneck -14.6903 -3.43887 -1.57499
upperneck 2.32253 -4.70593 4.8278
head 3.56104 -2.16434 1.53261
rclavicle -3.97569e-016 -1.17283e-014
rhumerus 5.36601 23.0277 -90.7741
rradius 99.7287
rwrist -50.06
rhand -31.8161 -2.29704
rfingers 7.12502
rthumb -5.07115 -32.2164
lclavicle -3.97569e-016 -1.17283e-014
lhumerus 15.4215 -29.1196 77.6368
lradius 99.6899
lwrist 5.57381
lhand -14.4554 26.9851
lfingers 7.12502
lthumb 11.69 56.639
rfemur -45.0164 -5.23464 19.2801
rtibia 59.3475
rfoot 1.88086 -0.245472
rtoes 38.1184
lfemur -47.4957 8.1726 -18.8296
ltibia 62.2244
lfoot -11.3587 2.29749
ltoes -5.80932
2848
root 19.8881 15.97 -0.414056 -517.901 -91.9012 154.981
lowerback 11.6364 1.12856 -0.729629
upperback 9.61129 0.897857 1.28164
thorax 3.51895 0.15126 1.65633
lowerneck -14.7598 -3.45295 -1.62691
upperneck 2.12367 -4.71676 4.89709
head 3.50867 -2.17133 1.56375
rclavicle -2.28602e-015 5.36719e-015
rhumerus 5.25303 22.6269 -90.7307
rradius 99.6258
rwrist -49.9889
rhand -31.7722 -2.18176
rfingers 7.12502
rthumb -5.02877 -32.1021
lclavicle -2.28602e-015 5.36719e-015
lhumerus 15.2797 -28.9116 77.7487
lradius 99.8852
lwrist 5.53448
lhand -14.7499 26.9107
lfingers 7.12502
lthumb 11.4059 56.5804
rfemur -45.3131 -5.0873 19.3388
rtibia 59.2859
rfoot 1.75807 -0.146566
rtoes 37.8469
lfemur -47.8002 8.09727 -18.7949
ltibia 62.1806
lfoot -11.3894 2.38132
ltoes -5.73472
2849
root 19.8617 15.9822 -0.412629 -516.48 -91.8753 153.959
lowerback 11.6766 1.1582 -0.735447
upperback 9.57479 0.938605 1.29244
thorax 3.45644 0.172689 1.66677
lowerneck -14.8368 -3.46946 -1.67513
upperneck 1.92974 -4.73206 4.97244
head 3.45987 -2.18013 1.59581
rclavicle -1.35174e-014 -1.98785e-016
rhumerus 5.14588 22.238 -90.6658
rradius 99.5552
rwrist -49.9154
rhand -31.8285 -2.14634
rfingers 7.12502
rthumb -5.0831 -32.0654
lclavicle -1.35174e-014 -1.98785e-016
lhumerus 15.1451 -28.702 77.8548
lradius 100.101
lwrist 5.52508
lhand -15.0052 26.88
lfingers 7.12502
lthumb 11.1597 56.5632
rfemur -45.6388 -4.9369 19.3669
rtibia 59.2404
rfoot 1.65202 -0.0844449
rtoes 37.8374
lfemur -48.1087 8.0338 -18.7882
ltibia 62.1235
lfoot -11.4343 2.50631
ltoes -5.80929
2850
root 19.8339 15.9931 -0.411405 -515.418 -91.8161 153.351
lowerback 11.6596 1.19492 -0.771296
upperback 9.53041 0.988519 1.28963
thorax 3.41572 0.198255 1.67962
lowerneck -14.9245 -3.4846 -1.70942
upperneck 1.73646 -4.7476 5.04018
head 3.41268 -2.18923 1.62262
rclavicle 8.94531e-016 7.95139e-015
rhumerus 5.05887 21.8728 -90.5801
rradius 99.4981
rwrist -49.8394
rhand -31.9297 -2.14052
rfingers 7.12502
rthumb -5.1809 -32.0572
lclavicle 8.94531e-016 7.95139e-015
lhumerus 15.0221 -28.487 77.9276
lradius 100.327
lwrist 5.56729
lhand -15.2642 26.873
lfingers 7.12502
lthumb 10.9099 56.5696
rfemur -46.0396 -4.77912 19.3707
rtibia 59.2134
rfoot 1.57224 -0.0580928
rtoes 37.9196
lfemur -48.4705 8.00758 -18.8242
ltibia 62.0626
lfoot -11.4967 2.63855
ltoes -6.02081
2851
root 19.8048 16.0038 -0.411124 -514.533 -91.719 152.974
lowerback 11.5746 1.23754 -0.849891
upperback 9.47915 1.04508 1.2772
thorax 3.40346 0.225864 1.70664
lowerneck -15.0022 -3.49459 -1.72824
upperneck 1.52815 -4.75776 5.09375
head 3.35703 -2.19668 1.64236
rclavicle 3.77691e-015 -1.17283e-014
rhumerus 4.98569 21.5427 -90.4798
rradius 99.4428
rwrist -49.7661
rhand -32.0348 -2.12718
rfingers 7.12502
rthumb -5.28229 -32.0413
lclavicle 3.77691e-015 -1.17283e-014
lhumerus 14.896 -28.2614 77.9609
lradius 100.559
lwrist 5.65774
lhand -15.5644 26.8798
lfingers 7.12502
lthumb 10.6203 56.5914
rfemur -46.506 -4.61104 19.3596
rtibia 59.1954
rfoot 1.52081 -0.0484224
rtoes 37.8951
lfemur -48.8828 8.03521 -18.9013
ltibia 62.0002
lfoot -11.5787 2.74704
ltoes -6.32809
2852
root 19.7748 16.0157 -0.410916 -513.946 -91.6133 152.909
lowerback 11.4701 1.27242 -0.945268
upperback 9.42749 1.09073 1.26038
thorax 3.4015 0.247362 1.73973
lowerneck -15.0541 -3.49901 -1.74509
upperneck 1.29469 -4.75965 5.13863
head 3.28698 -2.20136 1.65972
rclavicle -6.75868e-015 -1.98785e-015
rhumerus 4.91736 21.2582 -90.3655
rradius 99.3979
rwrist -49.6966
rhand -32.1348 -2.10285
rfingers 7.12502
rthumb -5.37885 -32.0146
lclavicle -6.75868e-015 -1.98785e-015
lhumerus 14.7688 -28.0186 77.9706
lradius 100.786
lwrist 5.76621
lhand -15.9212 26.9067
lfingers 7.12502
lthumb 10.2762 56.6357
rfemur -46.9811 -4.4612 19.3382
rtibia 59.1726
rfoot 1.50307 -0.0462177
rtoes 37.7248
lfemur -49.3035 8.08715 -19.0059
ltibia 61.9339
lfoot -11.6736 2.82729
ltoes -6.71026
2853
root 19.7448 16.0289 -0.409115 -513.905 -91.5387 153.373
lowerback 11.4024 1.28398 -1.01394
upperback 9.3767 1.10675 1.24426
thorax 3.38214 0.255195 1.76064
lowerneck -15.0815 -3.5018 -1.77625
upperneck 1.04875 -4.75629 5.18154
head 3.20823 -2.20425 1.67967
rclavicle 2.06736e-014 5.36719e-015
rhumerus 4.8409 21.0211 -90.2333
rradius 99.3721
rwrist -49.6155
rhand -32.2215 -2.0905
rfingers 7.12502
rthumb -5.46264 -32.0001
lclavicle 2.06736e-014 5.36719e-015
lhumerus 14.6529 -27.7559 77.9824
lradius 100.991
lwrist 5.86008
lhand -16.3196 26.9603
lfingers 7.12502
lthumb 9.89184 56.7079
rfemur -47.4217 -4.36516 19.3094
rtibia 59.1382
rfoot 1.52357 -0.0508223
rtoes 37.4947
lfemur -49.703 8.1161 -19.1217
ltibia 61.8641
lfoot -11.7634 2.89358
ltoes -7.13263
2854
root 19.715 16.0424 -0.404727 -514.338 -91.5139 154.284
lowerback 11.3917 1.26967 -1.02343
upperback 9.32321 1.09202 1.23025
thorax 3.33131 0.25054 1.75234
lowerneck -15.0899 -3.50693 -1.82096
upperneck 0.80218 -4.75321 5.21987
head 3.12613 -2.20779 1.70071
rclavicle -2.28602e-015 1.45113e-014
rhumerus 4.75456 20.8161 -90.0775
rradius 99.3603
rwrist -49.5026
rhand -32.2779 -2.09554
rfingers 7.12502
rthumb -5.51703 -32.0037
lclavicle -2.28602e-015 1.45113e-014
lhumerus 14.5551 -27.4846 78.0104
lradius 101.168
lwrist 5.92562
lhand -16.7191 27.0456
lfingers 7.12502
lthumb 9.50641 56.8112
rfemur -47.8217 -4.3356 19.2795
rtibia 59.0955
rfoot 1.57777 -0.0571772
rtoes 37.3079
lfemur -50.083 8.09435 -19.2328
ltibia 61.7955
lfoot -11.8296 2.96004
ltoes -7.53331
2855
root 19.6851 16.0556 -0.398056 -515.03 -91.5234 155.444
lowerback 11.4112 1.24246 -0.977005
upperback 9.26758 1.06414 1.2148
thorax 3.26335 0.242193 1.71188
lowerneck -15.086 -3.51499 -1.86533
upperneck 0.553156 -4.75325 5.24564
head 3.04069 -2.21356 1.71733
rclavicle -2.28602e-015 4.96962e-015
rhumerus 4.67879 20.6161 -89.8913
rradius 99.3501
rwrist -49.3527
rhand -32.289 -2.08758
rfingers 7.12502
rthumb -5.52773 -31.9955
lclavicle -2.28602e-015 4.96962e-015
lhumerus 14.4834 -27.2215 78.0471
lradius 101.319
lwrist 5.97428
lhand -17.059 27.162
lfingers 7.12502
lthumb 9.17846 56.9422
rfemur -48.2025 -4.35599 19.2488
rtibia 59.0518
rfoot 1.6539 -0.0587789
rtoes 37.2243
lfemur -50.4615 8.02982 -19.3379
ltibia 61.7327
lfoot -11.8718 3.03115
ltoes -7.88698
2856
root 19.6543 16.0686 -0.390999 -515.679 -91.5305 156.582
lowerback 11.4003 1.22269 -0.920512
upperback 9.21231 1.04773 1.19708
thorax 3.21203 0.24022 1.66284
lowerneck -15.0809 -3.52151 -1.89264
upperneck 0.304598 -4.75346 5.25491
head 2.95421 -2.22 1.72533
rclavicle 5.86415e-015 3.77691e-015
rhumerus 4.6316 20.4036 -89.6767
rradius 99.3237
rwrist -49.1797
rhand -32.2488 -2.03711
rfingers 7.12502
rthumb -5.48893 -31.946
lclavicle 5.86415e-015 3.77691e-015
lhumerus 14.4377 -26.9769 78.0714
lradius 101.457
lwrist 6.03342
lhand -17.2895 27.2905
lfingers 7.12502
lthumb 8.95603 57.0804
rfemur -48.5996 -4.38769 19.2197
rtibia 59.0118
rfoot 1.73724 -0.0501502
rtoes 37.2311
lfemur -50.8625 7.96615 -19.445
ltibia 61.6755
lfoot -11.904 3.09681
ltoes -8.17834
